<?xml version="1.0" encoding="UTF-8"?>
<!DOCTYPE svg
PUBLIC "-//W3C//DTD SVG 1.1//EN"
       "http://www.w3.org/Graphics/SVG/1.1/DTD/svg11.dtd">
<svg viewBox="46 71 992 698" width="946px" height="627px" xmlns="http://www.w3.org/2000/svg" version="1.1">
   <line x1="279" y1="158" x2="289" y2="158" style="stroke:#b0b;stroke-width:1;"/>
   <line x1="478" y1="116" x2="488" y2="116" style="stroke:#b0b;stroke-width:1;"/>
   <line x1="289" y1="158" x2="478" y2="116" style="stroke:#b0b;stroke-width:1;"/>
   <line x1="286.5" y1="158" x2="282.96446609407" y2="161.53553390593" style="stroke:#b0b;stroke-width:2;"/>
   <line x1="286.5" y1="158" x2="282.96446609407" y2="154.46446609407" style="stroke:#b0b;stroke-width:2;"/>
   <line x1="483" y1="116" x2="479.46446609407" y2="119.53553390593" style="stroke:#b0b;stroke-width:2;"/>
   <line x1="483" y1="116" x2="479.46446609407" y2="112.46446609407" style="stroke:#b0b;stroke-width:2;"/>
   <line x1="279" y1="138" x2="289" y2="138" style="stroke:#cb0;stroke-width:1;"/>
   <line x1="320" y1="377" x2="310" y2="377" style="stroke:#cb0;stroke-width:1;"/>
   <line x1="289" y1="138" x2="320" y2="377" style="stroke:#cb0;stroke-width:1;"/>
   <line x1="286.5" y1="138" x2="282.96446609407" y2="141.53553390593" style="stroke:#cb0;stroke-width:2;"/>
   <line x1="286.5" y1="138" x2="282.96446609407" y2="134.46446609407" style="stroke:#cb0;stroke-width:2;"/>
   <line x1="315" y1="377" x2="318.53553390593" y2="380.53553390593" style="stroke:#cb0;stroke-width:2;"/>
   <line x1="315" y1="377" x2="318.53553390593" y2="373.46446609407" style="stroke:#cb0;stroke-width:2;"/>
   <line x1="811" y1="452" x2="801" y2="452" style="stroke:#0bf;stroke-width:1;"/>
   <line x1="618" y1="116" x2="608" y2="116" style="stroke:#0bf;stroke-width:1;"/>
   <line x1="801" y1="452" x2="618" y2="116" style="stroke:#0bf;stroke-width:1;"/>
   <line x1="803.5" y1="452" x2="807.03553390593" y2="455.53553390593" style="stroke:#0bf;stroke-width:2;"/>
   <line x1="803.5" y1="452" x2="807.03553390593" y2="448.46446609407" style="stroke:#0bf;stroke-width:2;"/>
   <line x1="613" y1="116" x2="616.53553390593" y2="119.53553390593" style="stroke:#0bf;stroke-width:2;"/>
   <line x1="613" y1="116" x2="616.53553390593" y2="112.46446609407" style="stroke:#0bf;stroke-width:2;"/>
   <line x1="811" y1="432" x2="801" y2="432" style="stroke:#cb0;stroke-width:1;"/>
   <line x1="626" y1="613" x2="616" y2="613" style="stroke:#cb0;stroke-width:1;"/>
   <line x1="801" y1="432" x2="626" y2="613" style="stroke:#cb0;stroke-width:1;"/>
   <line x1="803.5" y1="432" x2="807.03553390593" y2="435.53553390593" style="stroke:#cb0;stroke-width:2;"/>
   <line x1="803.5" y1="432" x2="807.03553390593" y2="428.46446609407" style="stroke:#cb0;stroke-width:2;"/>
   <line x1="621" y1="613" x2="624.53553390593" y2="616.53553390593" style="stroke:#cb0;stroke-width:2;"/>
   <line x1="621" y1="613" x2="624.53553390593" y2="609.46446609407" style="stroke:#cb0;stroke-width:2;"/>
   <line x1="239" y1="437" x2="229" y2="437" style="stroke:#b0b;stroke-width:1;"/>
   <line x1="188" y1="376" x2="178" y2="376" style="stroke:#b0b;stroke-width:1;"/>
   <line x1="229" y1="437" x2="188" y2="376" style="stroke:#b0b;stroke-width:1;"/>
   <line x1="231.5" y1="437" x2="235.03553390593" y2="440.53553390593" style="stroke:#b0b;stroke-width:2;"/>
   <line x1="231.5" y1="437" x2="235.03553390593" y2="433.46446609407" style="stroke:#b0b;stroke-width:2;"/>
   <line x1="183" y1="376" x2="186.53553390593" y2="379.53553390593" style="stroke:#b0b;stroke-width:2;"/>
   <line x1="183" y1="376" x2="186.53553390593" y2="372.46446609407" style="stroke:#b0b;stroke-width:2;"/>
   <line x1="310" y1="417" x2="320" y2="417" style="stroke:#0b0;stroke-width:1;"/>
   <line x1="499" y1="613" x2="509" y2="613" style="stroke:#0b0;stroke-width:1;"/>
   <line x1="320" y1="417" x2="499" y2="613" style="stroke:#0b0;stroke-width:1;"/>
   <line x1="317.5" y1="417" x2="313.96446609407" y2="420.53553390593" style="stroke:#0b0;stroke-width:2;"/>
   <line x1="317.5" y1="417" x2="313.96446609407" y2="413.46446609407" style="stroke:#0b0;stroke-width:2;"/>
   <line x1="504" y1="613" x2="500.46446609407" y2="616.53553390593" style="stroke:#0b0;stroke-width:2;"/>
   <line x1="504" y1="613" x2="500.46446609407" y2="609.46446609407" style="stroke:#0b0;stroke-width:2;"/>
   <line x1="664" y1="406" x2="674" y2="406" style="stroke:#b0b;stroke-width:1;"/>
   <line x1="801" y1="372" x2="811" y2="372" style="stroke:#b0b;stroke-width:1;"/>
   <line x1="674" y1="406" x2="801" y2="372" style="stroke:#b0b;stroke-width:1;"/>
   <line x1="671.5" y1="406" x2="667.96446609407" y2="409.53553390593" style="stroke:#b0b;stroke-width:2;"/>
   <line x1="671.5" y1="406" x2="667.96446609407" y2="402.46446609407" style="stroke:#b0b;stroke-width:2;"/>
   <line x1="806" y1="372" x2="802.46446609407" y2="375.53553390593" style="stroke:#b0b;stroke-width:2;"/>
   <line x1="806" y1="372" x2="802.46446609407" y2="368.46446609407" style="stroke:#b0b;stroke-width:2;"/>
   <line x1="481" y1="426" x2="471" y2="426" style="stroke:#0bf;stroke-width:1;"/>
   <line x1="320" y1="377" x2="310" y2="377" style="stroke:#0bf;stroke-width:1;"/>
   <line x1="471" y1="426" x2="320" y2="377" style="stroke:#0bf;stroke-width:1;"/>
   <line x1="473.5" y1="426" x2="477.03553390593" y2="429.53553390593" style="stroke:#0bf;stroke-width:2;"/>
   <line x1="473.5" y1="426" x2="477.03553390593" y2="422.46446609407" style="stroke:#0bf;stroke-width:2;"/>
   <line x1="315" y1="377" x2="318.53553390593" y2="380.53553390593" style="stroke:#0bf;stroke-width:2;"/>
   <line x1="315" y1="377" x2="318.53553390593" y2="373.46446609407" style="stroke:#0bf;stroke-width:2;"/>
   <rect width="117" height="20" x="61" y="346" style="fill:#007;stroke:black;"/>
   <text width="117" height="20" x="66" y="360" style="fill:#fff;" font-family="Arial" font-size="16px"> films</text>
   <rect width="117" height="20" x="61" y="366" style="fill:#aea;stroke:black;"/>
   <text width="117" height="20" x="66" y="380" style="fill:black;" font-family="Arial" font-size="16px">id</text>
   <rect width="117" height="20" x="61" y="386" style="fill:none;stroke:black;"/>
   <text width="117" height="20" x="66" y="400" style="fill:black;" font-family="Arial" font-size="16px">name</text>
   <rect width="117" height="20" x="61" y="406" style="fill:none;stroke:black;"/>
   <text width="117" height="20" x="66" y="420" style="fill:black;" font-family="Arial" font-size="16px">genre</text>
   <rect width="117" height="20" x="61" y="426" style="fill:none;stroke:black;"/>
   <text width="117" height="20" x="66" y="440" style="fill:black;" font-family="Arial" font-size="16px">year_of_release</text>
   <rect width="117" height="20" x="61" y="446" style="fill:none;stroke:black;"/>
   <text width="117" height="20" x="66" y="460" style="fill:black;" font-family="Arial" font-size="16px">duration</text>
   <rect width="107" height="20" x="509" y="583" style="fill:#007;stroke:black;"/>
   <text width="107" height="20" x="514" y="597" style="fill:#fff;" font-family="Arial" font-size="16px"> halls</text>
   <rect width="107" height="20" x="509" y="603" style="fill:#aea;stroke:black;"/>
   <text width="107" height="20" x="514" y="617" style="fill:black;" font-family="Arial" font-size="16px">id</text>
   <rect width="107" height="20" x="509" y="623" style="fill:none;stroke:black;"/>
   <text width="107" height="20" x="514" y="637" style="fill:black;" font-family="Arial" font-size="16px">name</text>
   <rect width="107" height="20" x="509" y="643" style="fill:none;stroke:black;"/>
   <text width="107" height="20" x="514" y="657" style="fill:black;" font-family="Arial" font-size="16px">rows_number</text>
   <rect width="107" height="20" x="509" y="663" style="fill:none;stroke:black;"/>
   <text width="107" height="20" x="514" y="677" style="fill:black;" font-family="Arial" font-size="16px">seats_number</text>
   <rect width="124" height="20" x="155" y="88" style="fill:#007;stroke:black;"/>
   <text width="124" height="20" x="160" y="102" style="fill:#fff;" font-family="Arial" font-size="16px"> prices</text>
   <rect width="124" height="20" x="155" y="108" style="fill:#aea;stroke:black;"/>
   <text width="124" height="20" x="160" y="122" style="fill:black;" font-family="Arial" font-size="16px">id</text>
   <rect width="124" height="20" x="155" y="128" style="fill:none;stroke:black;"/>
   <text width="124" height="20" x="160" y="142" style="fill:black;" font-family="Arial" font-size="16px">session_id</text>
   <rect width="124" height="20" x="155" y="148" style="fill:none;stroke:black;"/>
   <text width="124" height="20" x="160" y="162" style="fill:black;" font-family="Arial" font-size="16px">seat_category_id</text>
   <rect width="124" height="20" x="155" y="168" style="fill:none;stroke:black;"/>
   <text width="124" height="20" x="160" y="182" style="fill:black;" font-family="Arial" font-size="16px">price</text>
   <rect width="166" height="20" x="811" y="342" style="fill:#007;stroke:black;"/>
   <text width="166" height="20" x="816" y="356" style="fill:#fff;" font-family="Arial" font-size="16px"> rows_seats_categories</text>
   <rect width="166" height="20" x="811" y="362" style="fill:#aea;stroke:black;"/>
   <text width="166" height="20" x="816" y="376" style="fill:black;" font-family="Arial" font-size="16px">id</text>
   <rect width="166" height="20" x="811" y="382" style="fill:none;stroke:black;"/>
   <text width="166" height="20" x="816" y="396" style="fill:black;" font-family="Arial" font-size="16px">row</text>
   <rect width="166" height="20" x="811" y="402" style="fill:none;stroke:black;"/>
   <text width="166" height="20" x="816" y="416" style="fill:black;" font-family="Arial" font-size="16px">seat</text>
   <rect width="166" height="20" x="811" y="422" style="fill:none;stroke:black;"/>
   <text width="166" height="20" x="816" y="436" style="fill:black;" font-family="Arial" font-size="16px">hall_id</text>
   <rect width="166" height="20" x="811" y="442" style="fill:none;stroke:black;"/>
   <text width="166" height="20" x="816" y="456" style="fill:black;" font-family="Arial" font-size="16px">seat_category_id</text>
   <rect width="120" height="20" x="488" y="86" style="fill:#007;stroke:black;"/>
   <text width="120" height="20" x="493" y="100" style="fill:#fff;" font-family="Arial" font-size="16px"> seat_categories</text>
   <rect width="120" height="20" x="488" y="106" style="fill:#aea;stroke:black;"/>
   <text width="120" height="20" x="493" y="120" style="fill:black;" font-family="Arial" font-size="16px">id</text>
   <rect width="120" height="20" x="488" y="126" style="fill:none;stroke:black;"/>
   <text width="120" height="20" x="493" y="140" style="fill:black;" font-family="Arial" font-size="16px">name</text>
   <rect width="71" height="20" x="239" y="347" style="fill:#007;stroke:black;"/>
   <text width="71" height="20" x="244" y="361" style="fill:#fff;" font-family="Arial" font-size="16px"> sessions</text>
   <rect width="71" height="20" x="239" y="367" style="fill:#aea;stroke:black;"/>
   <text width="71" height="20" x="244" y="381" style="fill:black;" font-family="Arial" font-size="16px">id</text>
   <rect width="71" height="20" x="239" y="387" style="fill:none;stroke:black;"/>
   <text width="71" height="20" x="244" y="401" style="fill:black;" font-family="Arial" font-size="16px">datetime</text>
   <rect width="71" height="20" x="239" y="407" style="fill:none;stroke:black;"/>
   <text width="71" height="20" x="244" y="421" style="fill:black;" font-family="Arial" font-size="16px">hall_id</text>
   <rect width="71" height="20" x="239" y="427" style="fill:none;stroke:black;"/>
   <text width="71" height="20" x="244" y="441" style="fill:black;" font-family="Arial" font-size="16px">film_id</text>
   <rect width="183" height="20" x="481" y="356" style="fill:#007;stroke:black;"/>
   <text width="183" height="20" x="486" y="370" style="fill:#fff;" font-family="Arial" font-size="16px"> tickets</text>
   <rect width="183" height="20" x="481" y="376" style="fill:#aea;stroke:black;"/>
   <text width="183" height="20" x="486" y="390" style="fill:black;" font-family="Arial" font-size="16px">id</text>
   <rect width="183" height="20" x="481" y="396" style="fill:none;stroke:black;"/>
   <text width="183" height="20" x="486" y="410" style="fill:black;" font-family="Arial" font-size="16px">rows_seats_categories_id</text>
   <rect width="183" height="20" x="481" y="416" style="fill:none;stroke:black;"/>
   <text width="183" height="20" x="486" y="430" style="fill:black;" font-family="Arial" font-size="16px">session_id</text>
   <rect width="183" height="20" x="481" y="436" style="fill:none;stroke:black;"/>
   <text width="183" height="20" x="486" y="450" style="fill:black;" font-family="Arial" font-size="16px">status</text>
</svg>
